<svg width="132" height="150" viewBox="0 0 132 150" fill="none" xmlns="http://www.w3.org/2000/svg">
<path d="M105.293 90.7071C105.683 91.0976 106.317 91.0976 106.707 90.7071C107.098 90.3166 107.098 89.6834 106.707 89.2929L105.293 90.7071ZM71 54C70.4477 54 70 54.4477 70 55L70 64C70 64.5523 70.4477 65 71 65C71.5523 65 72 64.5523 72 64L72 56L80 56C80.5523 56 81 55.5523 81 55C81 54.4477 80.5523 54 80 54L71 54ZM106.707 89.2929L71.7071 54.2929L70.2929 55.7071L105.293 90.7071L106.707 89.2929Z" fill="#D8FDF6"/>
<path d="M1.25272 101.71C2.03599 106.021 2.81428 110.114 3.49278 114.218C3.71728 115.581 3.68735 116.983 3.78214 118.371C3.88691 119.922 3.15852 120.653 1.29263 120.574C-0.00450511 113.359 -0.423581 106.12 0.489405 98.7123C1.44729 90.9248 4.72506 84.2237 8.88588 77.7498C15.5861 67.3303 22.0768 56.7774 28.8119 46.3826C30.7576 43.3802 32.9428 40.4074 35.5321 37.9532C41.01 32.7582 44.2878 26.0818 48.5534 20.077C50.3993 17.4796 52.3849 14.9759 54.2807 12.413C56.5358 9.36617 59.599 9.55875 62.762 10.3785C64.4333 10.813 66.1246 11.3019 67.6762 12.0377C74.7705 15.4203 82.0096 15.371 89.3933 13.2081C91.8329 12.492 94.3024 11.8896 96.7221 11.1192C101.332 9.65752 103.861 5.71687 107.034 2.53175C107.937 1.62807 109.03 0.76883 110.207 0.309581C111.844 -0.327441 113.291 -0.0360896 114.433 1.6972C119.632 9.57851 124.98 17.361 130.203 25.2275C130.907 26.2843 131.161 27.6275 131.72 28.7929C132.478 30.378 131.58 31.341 130.418 32.0274C127.594 33.6817 124.72 35.2717 121.807 36.7631C120.844 37.2569 119.686 37.3754 119.098 37.5384C118.494 36.4075 118.255 35.573 117.716 35.0199C116.454 33.7261 114.917 34.2545 113.635 34.931C112.567 35.494 111.644 36.4075 110.801 37.3013C109.674 38.4964 108.706 39.405 106.755 39.5926C105.373 39.726 104.116 41.5926 102.903 42.7876C101.926 43.7555 101.102 44.8765 100.609 45.4542C98.6578 43.8691 97.1312 41.8839 95.1655 41.2716C93.6239 40.7877 91.5386 42.0025 89.2037 42.5852C90.2015 43.8839 90.7303 44.5654 91.4138 45.4542C88.7397 48.2937 85.7114 50.6195 82.1592 52.4812C79.7196 53.7602 77.5943 54.1256 74.9851 53.2565C71.393 52.0615 68.3796 53.7207 65.7305 55.9083C65.022 56.496 64.6179 57.7206 64.5182 58.7033C64.2188 61.5921 63.1911 64.1452 61.0658 66.0859C58.3168 68.5944 56.9997 71.7203 57.1195 75.2511C57.319 81.2312 53.238 85.1027 50.4392 89.6261C50.3145 89.8285 50.07 90.1396 49.9204 90.1199C45.984 89.5866 44.3227 93.3247 41.3393 94.5939C38.0066 96.0111 36.8841 98.4061 37.4778 101.873C37.8769 104.208 38.3409 106.554 38.4856 108.915C38.6103 110.919 38.6353 112.993 36.924 114.633C36.3902 115.146 36.2804 116.1 35.8464 117.171C37.6674 117.028 38.9645 116.835 40.2667 116.845C41.5538 116.855 43.0006 116.243 43.7639 118.208C44.4275 119.922 44.6719 121.64 43.2301 122.603C41.9729 123.443 40.112 123.704 38.5355 123.655C37.5427 123.62 36.5299 122.613 35.6269 121.912C33.4766 120.233 31.4411 120.282 29.3507 122.025C28.5425 122.702 27.4998 123.112 26.7116 123.803C26.1628 124.287 25.8634 125.052 25.4493 125.689C25.619 125.847 25.7886 126.005 25.9582 126.159C27.435 125.768 28.9716 125.522 30.3735 124.949C32.6335 124.015 34.5493 124.42 36.2755 125.996C38.1912 127.744 40.117 128.129 42.5366 126.771C44.6021 125.61 46.912 124.855 49.1471 124.015C51.1077 123.285 52.355 124.129 52.5396 126.198C52.5745 126.603 52.6194 127.033 52.5296 127.428C51.6865 131.205 52.2802 134.588 54.6699 137.808C56.0568 139.679 53.7369 144.272 51.0429 145.57C50.2397 145.956 49.3366 146.148 48.4636 146.38C46.3482 146.933 46.0339 147.763 47.6803 150C46.3682 149.605 45.3105 149.58 44.6819 149.052C40.8803 145.842 37.1635 142.39 35.7865 137.497C34.4295 132.672 30.9223 129.813 26.7066 129.013C20.4354 127.823 17.427 123.581 14.1942 119.102C12.0589 116.149 11.8244 112.702 11.3006 109.339C10.9264 106.929 10.2978 105.003 7.58874 104.174C5.50334 103.537 4.14634 101.009 1.24274 101.729L1.25272 101.71Z" fill="#7FA810"/>
</svg>
