<svg width="187" height="150" viewBox="0 0 187 150" fill="none" xmlns="http://www.w3.org/2000/svg">
<path d="M186.916 114.612C186.543 115.391 185.873 115.749 185.092 116.045C155.151 127.261 125.223 138.488 95.2942 149.728C94.3388 150.087 93.495 150.111 92.5272 149.741C62.2514 138.18 31.9633 126.643 1.67509 115.106C0.285386 114.588 0 114.168 0 112.686C0 88.2661 0 63.8591 0 39.4397C0 37.9822 0.310202 37.5375 1.6875 37.0187C9.6535 34.0296 17.6071 31.0405 25.5855 28.0884C26.2555 27.8414 26.5037 27.5326 26.4665 26.8162C26.3548 24.9387 27.273 23.4936 28.6131 22.2831C30.2261 20.8379 32.137 19.9239 34.1719 19.2446C39.9913 17.2806 45.9968 16.8236 52.0768 17.3547C53.2183 17.4536 54.2482 17.3424 55.3277 16.9348C60.6508 14.8967 65.9987 12.9081 71.3465 10.9195C71.8056 10.7466 72.091 10.5613 72.0538 10.0054C71.9173 7.85624 72.9224 6.23816 74.5354 4.91653C76.4835 3.32315 78.7418 2.35971 81.1365 1.71742C89.8967 -0.64176 98.632 -0.64176 107.28 2.2362C108.955 2.79203 110.544 3.70605 112.02 4.66949C113.981 5.94172 115.073 7.81919 114.874 10.2525C114.825 10.9071 115.073 11.1789 115.681 11.4135C121.264 13.5133 126.823 15.6502 132.407 17.7623C132.816 17.9229 133.313 17.96 133.759 17.9229C140.559 17.2065 147.247 17.5524 153.711 19.9239C155.275 20.5044 156.764 21.3567 158.154 22.2954C160.04 23.58 161.119 25.3957 160.908 27.7673C160.846 28.4466 161.094 28.743 161.74 28.9901C169.532 31.9298 177.299 34.9189 185.079 37.8586C185.861 38.1551 186.506 38.5503 186.916 39.2914V114.649V114.612ZM183.292 42.4288C182.92 42.5399 182.672 42.6141 182.436 42.7005C153.786 53.4465 125.148 64.1926 96.4978 74.9139C95.8774 75.1486 95.6912 75.4327 95.6912 76.0873C95.7036 98.9751 95.7036 121.875 95.7036 144.763C95.7036 145.035 95.7285 145.306 95.7409 145.665C96.0883 145.541 96.3489 145.455 96.6094 145.368C125.21 134.647 153.811 123.926 182.411 113.217C183.069 112.97 183.305 112.686 183.305 111.957C183.28 89.1184 183.28 66.28 183.28 43.4293C183.28 43.1452 183.28 42.8611 183.28 42.4411L183.292 42.4288ZM6.97335 38.8962C7.37041 39.0691 7.56894 39.1679 7.77988 39.242C36.2565 50.0869 64.7206 60.9441 93.1972 71.7642C93.6067 71.9248 94.1774 71.9124 94.5869 71.7642C122.728 61.2281 150.87 50.6674 179.012 40.119C179.26 40.0202 179.496 39.909 179.905 39.7361C173.502 37.2905 167.261 34.9189 160.896 32.498C160.896 34.4372 160.834 36.2282 160.908 38.0316C161.007 40.2796 160.114 42.0706 158.34 43.2934C156.863 44.3186 155.275 45.2944 153.587 45.8626C144.529 48.9258 135.397 48.9134 126.252 46.2084C124.18 45.5908 122.232 44.6768 120.545 43.2934C118.894 41.9347 117.989 40.2549 118.038 38.0439C118.113 34.6348 118.125 31.2257 118.038 27.8167C117.976 25.4081 118.919 23.543 120.842 22.2707C122.331 21.2702 124.031 20.5662 125.632 19.7386C125.843 19.6275 126.079 19.5533 126.476 19.3928C122.53 17.8859 118.758 16.4531 114.874 14.9708C114.874 15.4032 114.874 15.6749 114.874 15.959C114.874 17.5153 114.837 19.0593 114.874 20.6156C114.949 22.6042 114.154 24.1729 112.715 25.4698C111.301 26.7421 109.663 27.6314 107.888 28.249C99.029 31.3246 90.0828 31.374 81.0745 28.953C78.7542 28.3354 76.5704 27.3844 74.6595 25.8898C72.91 24.5187 71.9049 22.7895 72.0042 20.4797C72.0786 18.7999 72.0166 17.1201 72.0166 15.4402C72.0166 15.1685 71.9918 14.8967 71.9794 14.5138C68.108 15.9713 64.3608 17.3794 60.415 18.8616C60.8493 19.0099 61.0726 19.0963 61.296 19.1704C63.182 19.8374 65.006 20.6403 66.6067 21.8878C68.3562 23.2589 69.3364 24.9758 69.2868 27.2855C69.2124 30.744 69.2248 34.2149 69.2868 37.6734C69.324 39.7238 68.5299 41.3295 67.0409 42.6511C65.5644 43.9604 63.8397 44.8621 61.9784 45.4797C52.6848 48.5429 43.3663 48.5429 34.0478 45.6032C31.8392 44.8991 29.7794 43.8492 28.1292 42.1447C27 40.9713 26.392 39.6126 26.4292 37.9574C26.4665 36.1294 26.4292 34.289 26.4292 32.4486C26.4292 32.2015 26.4044 31.9669 26.3796 31.6334C19.9026 34.0667 13.5248 36.4505 6.97335 38.9085V38.8962ZM92.5768 15.3785C97.3663 15.3785 101.262 14.9214 104.402 14.0074C106.499 13.4022 108.558 12.6858 110.246 11.2159C111.574 10.0549 111.623 8.91849 110.234 7.85624C109.142 7.01632 107.901 6.25051 106.61 5.80585C97.9247 2.86614 89.1894 2.87849 80.4913 5.73174C79.1885 6.16405 77.9352 6.90516 76.8309 7.72037C75.2427 8.89379 75.2551 10.129 76.8309 11.3147C77.836 12.0682 78.9651 12.6981 80.1315 13.1675C84.3751 14.8967 88.8668 15.3167 92.5768 15.3785ZM47.4734 32.4856C51.9527 32.4856 56.0846 32.1027 60.0428 30.6946C61.5566 30.1511 63.0579 29.41 64.3856 28.496C66.1103 27.3102 66.1227 25.9516 64.4104 24.7658C63.0828 23.8518 61.6062 23.0489 60.08 22.5672C52.4118 20.1586 44.6567 20.1833 36.9017 22.1596C34.8295 22.6907 32.8442 23.4565 31.1691 24.8399C29.7174 26.0504 29.6553 27.2238 31.1691 28.3478C32.3107 29.2001 33.6259 29.9041 34.9536 30.4229C39.0731 32.0286 43.4035 32.4362 47.4734 32.4856ZM139.331 32.9303C143.574 32.9056 147.632 32.5597 151.503 31.1887C153.066 30.6329 154.617 29.8794 155.995 28.953C157.757 27.7549 157.744 26.3839 155.995 25.1734C154.741 24.2964 153.327 23.5183 151.875 23.0612C143.897 20.5415 135.844 20.5662 127.803 22.8142C125.967 23.3206 124.217 24.0617 122.753 25.3216C121.351 26.5197 121.314 27.6808 122.766 28.7801C123.783 29.5583 124.937 30.2129 126.116 30.6946C130.384 32.4362 134.901 32.8685 139.318 32.9303H139.331ZM111.239 15.0203C105.655 18.1205 99.6494 18.8616 93.5198 19.0222V27.125C95.7657 26.9273 97.9371 26.8162 100.084 26.5197C103.285 26.0874 106.399 25.3093 109.204 23.6171C110.581 22.7895 111.474 21.7273 111.263 19.961C111.127 18.8864 111.239 17.7994 111.239 16.7124C111.239 16.1813 111.239 15.6502 111.239 15.0079V15.0203ZM139.566 36.5617V44.5409C143.934 44.5039 148.177 44.0839 152.235 42.5647C153.525 42.0829 154.779 41.3912 155.933 40.6254C156.503 40.2425 157.161 39.5014 157.211 38.8838C157.372 36.8211 157.273 34.7336 157.273 32.5597C151.739 35.6477 145.758 36.4011 139.579 36.5494L139.566 36.5617ZM47.8952 44.1086C53.1687 44.0098 58.2808 43.491 62.9835 41.0701C63.6659 40.7242 64.2988 40.2302 64.8571 39.7114C65.1921 39.4026 65.552 38.9085 65.5768 38.4762C65.6512 36.4011 65.614 34.3137 65.614 32.1398C60.0676 35.2401 54.0621 35.9565 47.9077 36.1417V44.121L47.8952 44.1086Z" fill="#7FA810"/>
<path d="M115.308 50.0127C115.308 51.7172 115.246 53.4217 115.32 55.1263C115.432 57.3743 114.464 59.0665 112.777 60.4252C110.915 61.9321 108.744 62.8832 106.461 63.5131C97.6884 65.9588 88.9407 65.9217 80.2302 63.1549C78.3442 62.5497 76.5698 61.6974 75.0188 60.4375C73.3065 59.0541 72.3883 57.3372 72.4379 55.0645C72.5124 51.6554 72.5124 48.2464 72.4379 44.8373C72.3883 42.5646 73.3065 40.8477 75.0188 39.4766C77.1902 37.7474 79.7215 36.7592 82.3892 36.1046C90.8143 34.0295 99.2022 34.1036 107.503 36.7592C109.34 37.3398 111.064 38.1797 112.603 39.3778C114.377 40.7612 115.432 42.4781 115.32 44.8249C115.233 46.5542 115.308 48.2834 115.308 50.0127ZM93.8667 38.3032C89.6356 38.3279 85.4292 38.7232 81.409 40.2054C79.9448 40.7488 78.5055 41.49 77.2399 42.3916C75.6641 43.5156 75.6765 44.8002 77.2399 45.9242C78.4683 46.8012 79.8332 47.6041 81.2601 48.0611C89.4122 50.7167 97.6264 50.692 105.841 48.3328C107.54 47.8511 109.166 47.1347 110.543 45.986C112.057 44.7261 112.131 43.5033 110.543 42.3793C109.29 41.4899 107.888 40.7488 106.449 40.2177C102.404 38.7355 98.1848 38.3156 93.8791 38.3032H93.8667ZM93.9288 61.5492C94.0653 61.5862 94.1397 61.6233 94.2142 61.6233C98.892 61.5986 103.483 61.0675 107.813 59.19C108.893 58.7206 109.861 58.0042 110.829 57.3125C111.461 56.8555 111.71 56.1515 111.697 55.3363C111.66 53.6811 111.697 52.0383 111.685 50.3832C111.685 50.1732 111.66 49.9509 111.635 49.6668C106.089 52.7671 100.071 53.4711 93.9412 53.6688V61.5245L93.9288 61.5492Z" fill="#7FA810"/>
</svg>
