<svg width="144" height="150" viewBox="0 0 144 150" fill="none" xmlns="http://www.w3.org/2000/svg">
<path d="M65.8209 52.612C65.8209 68.8096 51.0864 81.9403 32.9104 81.9403C14.7345 81.9403 0 68.8096 0 52.612C0 36.4144 14.7345 23.2836 32.9104 23.2836C51.0864 23.2836 65.8209 36.4144 65.8209 52.612Z" fill="#7FA810"/>
<path d="M143.283 28.4328C143.283 41.6629 131.155 52.3881 116.194 52.3881C101.233 52.3881 89.1043 41.6629 89.1043 28.4328C89.1043 15.2027 101.233 4.47761 116.194 4.47761C131.155 4.47761 143.283 15.2027 143.283 28.4328Z" fill="#7FA810"/>
<path d="M116.418 37.1642C116.418 57.6894 97.7741 74.3284 74.776 74.3284C51.7778 74.3284 33.1342 57.6894 33.1342 37.1642C33.1342 16.639 51.7778 0 74.776 0C97.7741 0 116.418 16.639 116.418 37.1642Z" fill="#7FA810"/>
<path d="M98.9551 74.5522C98.9551 90.7499 84.2206 103.881 66.0446 103.881C47.8687 103.881 33.1342 90.7499 33.1342 74.5522C33.1342 58.3546 47.8687 45.2239 66.0446 45.2239C84.2206 45.2239 98.9551 58.3546 98.9551 74.5522Z" fill="#7FA810"/>
<path d="M140.597 66.4925C140.597 82.6901 125.862 95.8209 107.686 95.8209C89.5106 95.8209 74.776 82.6901 74.776 66.4925C74.776 50.2949 89.5106 37.1642 107.686 37.1642C125.862 37.1642 140.597 50.2949 140.597 66.4925Z" fill="#7FA810"/>
<rect x="74.7764" y="81.9403" width="15.6716" height="68.0597" fill="#7FA810"/>
<rect x="30.896" y="120" width="2.68657" height="30" fill="#7FA810"/>
<mask id="mask0_327_1101" style="mask-type:alpha" maskUnits="userSpaceOnUse" x="19" y="101" width="17" height="17">
<circle cx="27.4247" cy="109.365" r="7.68728" transform="rotate(-47.9251 27.4247 109.365)" fill="#D9D9D9"/>
</mask>
<g mask="url(#mask0_327_1101)">
<circle cx="35.8524" cy="108.588" r="7.68728" transform="rotate(-47.9251 35.8524 108.588)" fill="#7FA810"/>
</g>
<mask id="mask1_327_1101" style="mask-type:alpha" maskUnits="userSpaceOnUse" x="19" y="101" width="17" height="17">
<circle cx="27.4247" cy="109.365" r="7.68728" transform="rotate(58.5785 27.4247 109.365)" fill="#D9D9D9"/>
</mask>
<g mask="url(#mask1_327_1101)">
<circle cx="25.7753" cy="117.665" r="7.68728" transform="rotate(58.5785 25.7753 117.665)" fill="#7FA810"/>
</g>
<mask id="mask2_327_1101" style="mask-type:alpha" maskUnits="userSpaceOnUse" x="25" y="112" width="17" height="17">
<ellipse cx="33.4074" cy="120.549" rx="7.68728" ry="7.68728" transform="rotate(153.754 33.4074 120.549)" fill="#D9D9D9"/>
</mask>
<g mask="url(#mask2_327_1101)">
<ellipse cx="25.2902" cy="118.158" rx="7.68728" ry="7.68728" transform="rotate(153.754 25.2902 118.158)" fill="#7FA810"/>
</g>
<mask id="mask3_327_1101" style="mask-type:alpha" maskUnits="userSpaceOnUse" x="31" y="107" width="16" height="17">
<circle cx="39.034" cy="115.597" r="7.68728" transform="rotate(91.3326 39.034 115.597)" fill="#D9D9D9"/>
</mask>
<g mask="url(#mask3_327_1101)">
<circle cx="33.156" cy="121.685" r="7.68728" transform="rotate(91.3326 33.156 121.685)" fill="#7FA810"/>
</g>
<mask id="mask4_327_1101" style="mask-type:alpha" maskUnits="userSpaceOnUse" x="32" y="107" width="16" height="16">
<circle cx="39.7862" cy="115.077" r="7.68728" transform="rotate(-173.816 39.7862 115.077)" fill="#D9D9D9"/>
</mask>
<g mask="url(#mask4_327_1101)">
<circle cx="34.2178" cy="108.705" r="7.68728" transform="rotate(-173.816 34.2178 108.705)" fill="#7FA810"/>
</g>
<mask id="mask5_327_1101" style="mask-type:alpha" maskUnits="userSpaceOnUse" x="32" y="123" width="16" height="18">
<ellipse cx="39.8607" cy="132.165" rx="10.4555" ry="4.21113" transform="rotate(-48.1152 39.8607 132.165)" fill="#D9D9D9"/>
</mask>
<g mask="url(#mask5_327_1101)">
<ellipse cx="10.623" cy="4.18933" rx="10.623" ry="4.18933" transform="matrix(0.492421 -0.870357 0.789425 0.613847 27.3921 136.914)" fill="#7FA810"/>
</g>
<path d="M115.004 44.2191C115.004 49.4252 111.206 53.6456 106.52 53.6456C101.835 53.6456 98.0361 49.4252 98.0361 44.2191C98.0361 39.0129 101.835 34.7925 106.52 34.7925C111.206 34.7925 115.004 39.0129 115.004 44.2191Z" fill="#750B51"/>
<path d="M118.775 44.2191C118.775 49.4252 115.398 53.6456 111.233 53.6456C107.068 53.6456 103.692 49.4252 103.692 44.2191C103.692 39.0129 107.068 34.7925 111.233 34.7925C115.398 34.7925 118.775 39.0129 118.775 44.2191Z" fill="#750B51"/>
<path d="M109.784 33.0351L107.291 36.1637L109.784 31.6585L114.147 28.2797V29.6562L109.784 33.0351Z" fill="#750B51"/>
<path d="M103.288 30.3364C105.888 30.3949 107.977 32.5205 107.977 35.1341C107.977 35.4866 107.939 35.8303 107.867 36.1612C105.267 36.1027 103.178 33.9771 103.178 31.3635C103.178 31.0109 103.216 30.6673 103.288 30.3364Z" fill="#750B51"/>
</svg>
