<svg width="261" height="147" viewBox="0 0 261 147" fill="none" xmlns="http://www.w3.org/2000/svg">
<g clip-path="url(#clip0_307_20353)">
<path d="M24.5283 138.098C24.2961 136.36 23.9047 134.785 23.9047 133.21C23.8703 97.3575 23.8789 61.5003 23.8789 25.6474C23.8789 21.6288 24.7433 20.7683 28.7769 20.7683C82.0003 20.7683 135.224 20.7683 188.451 20.7683C192.261 20.7683 193.121 21.6116 193.121 25.415C193.121 61.5562 193.13 97.6974 193.096 133.834C193.096 135.203 192.679 136.571 192.429 138.102C198.548 138.102 204.904 138.072 211.255 138.128C212.442 138.137 213.676 138.352 214.803 138.722C216.816 139.385 217.921 141.273 217.645 143.227C217.366 145.24 215.861 146.716 213.793 146.953C213.156 147.026 212.507 146.987 211.862 146.987C143.183 146.987 74.5094 146.987 5.83105 146.987C5.18602 146.987 4.53669 147.026 3.90026 146.953C1.84047 146.72 0.326805 145.236 0.0429925 143.227C-0.23222 141.286 0.885829 139.38 2.88112 138.709C3.94326 138.352 5.10002 138.133 6.21376 138.12C11.7223 138.059 17.2308 138.094 22.7394 138.094C23.436 138.094 24.1284 138.094 24.5283 138.094V138.098ZM30.5055 131.795H186.469V27.3081C185.6 27.3081 184.835 27.3081 184.07 27.3081C133.77 27.3081 83.471 27.3254 33.1716 27.2565C30.9614 27.2565 30.4539 27.846 30.4582 29.9972C30.527 63.0664 30.5055 96.1313 30.5055 129.201C30.5055 130.039 30.5055 130.874 30.5055 131.799V131.795ZM109.053 140.46C105.479 140.46 101.906 140.378 98.341 140.525C97.567 140.555 96.2683 141.303 96.1823 141.871C95.9716 143.24 97.1886 143.519 98.3539 143.519C105.355 143.519 112.355 143.519 119.356 143.519C120.521 143.519 121.738 143.227 121.515 141.859C121.42 141.286 120.121 140.555 119.343 140.525C115.92 140.378 112.489 140.46 109.057 140.46H109.053Z" fill="#D8FDF6"/>
<path d="M202.668 59.2759C202.668 42.1518 202.668 25.0321 202.668 7.90804C202.668 3.85936 205.235 0.791664 209.204 0.0645378C209.548 0 209.909 0 210.262 0C224.642 0 239.022 0 253.402 0C257.396 0 260.764 3.20968 260.983 7.22394C261 7.52511 261 7.83059 261 8.13607C261 42.2551 261 76.3741 261 110.493C261 114.365 258.816 117.356 255.276 118.298C254.674 118.457 254.034 118.543 253.406 118.543C239.026 118.556 224.646 118.556 210.266 118.552C206.267 118.552 202.904 115.342 202.689 111.328C202.668 110.949 202.672 110.566 202.672 110.188C202.672 93.2185 202.672 76.245 202.672 59.2759H202.668ZM205.472 59.448C205.472 59.448 205.51 59.448 205.528 59.448C205.528 62.791 205.528 66.1341 205.528 69.4771C205.532 80.952 205.541 92.4268 205.549 103.902C205.549 105.179 205.846 105.485 207.084 105.485C223.618 105.485 240.153 105.485 256.683 105.485C257.857 105.485 258.239 105.119 258.239 103.958C258.239 102.589 258.196 101.225 258.192 99.8573C258.171 81.1628 258.153 62.4726 258.132 43.7782C258.123 34.1276 258.119 24.4771 258.11 14.8265C258.11 13.5745 257.844 13.2991 256.61 13.2991C240.075 13.2991 223.541 13.2991 207.011 13.2991C205.725 13.2991 205.407 13.6175 205.411 14.9211C205.424 18.2126 205.459 21.504 205.459 24.7954C205.463 36.3477 205.459 47.8957 205.459 59.448H205.472ZM231.797 115.841C234.137 115.854 236.08 113.926 236.063 111.62C236.046 109.357 234.163 107.464 231.905 107.443C229.557 107.417 227.613 109.306 227.596 111.629C227.583 113.914 229.497 115.837 231.793 115.845L231.797 115.841ZM231.759 6.36343C230.748 6.36343 229.733 6.3075 228.727 6.39355C228.387 6.42367 227.846 6.77217 227.807 7.03893C227.729 7.57674 228.224 7.77036 228.731 7.77036C230.778 7.77036 232.825 7.77896 234.876 7.77036C235.371 7.77036 235.835 7.61977 235.81 7.02602C235.788 6.4839 235.328 6.37204 234.868 6.36773C233.831 6.36343 232.795 6.36773 231.759 6.36773V6.36343ZM223.846 5.47711C223.029 5.4556 222.29 6.16121 222.255 6.9916C222.217 7.86501 222.918 8.61795 223.782 8.63516C224.629 8.65237 225.334 7.98548 225.373 7.12928C225.412 6.24726 224.715 5.49432 223.851 5.47281L223.846 5.47711Z" fill="#D8FDF6"/>
<path d="M231.81 114.447C230.228 114.439 229.007 113.174 229.028 111.573C229.054 110.028 230.297 108.819 231.858 108.828C233.41 108.837 234.627 110.063 234.64 111.625C234.648 113.208 233.401 114.456 231.81 114.447Z" fill="#D8FDF6"/>
</g>
<defs>
<clipPath id="clip0_307_20353">
<rect width="261" height="147" fill="white"/>
</clipPath>
</defs>
</svg>
