<svg width="79" height="147" viewBox="0 0 79 147" fill="none" xmlns="http://www.w3.org/2000/svg">
<path d="M78.2108 5.60153H42.7603V3.65196C42.7603 1.63322 41.1258 0 39.1068 0C37.0884 0 35.4545 1.63322 35.4545 3.65196V5.60153H0V80.0546H22.4191L21.3622 84.3365H12.0249C10.0065 84.3365 8.37267 85.9672 8.37267 87.9878C8.37267 90.005 10.0065 91.6407 12.0249 91.6407H19.5562L6.99253 142.471C6.50777 144.425 7.70338 146.406 9.66164 146.891C9.95565 146.965 10.25 146.998 10.5403 146.998C12.1809 146.998 13.6718 145.885 14.0831 144.221L27.0794 91.6357H35.4527V143.344C35.4527 145.362 37.0859 146.995 39.1043 146.995C41.1234 146.995 42.7553 145.362 42.7553 143.344V91.641H51.6267L64.6209 144.221C65.0312 145.888 66.5227 147 68.1633 147C68.453 147 68.7489 146.966 69.0432 146.893C70.9996 146.409 72.1952 144.43 71.7105 142.471L59.1499 91.6407H67.1765C69.1952 91.6407 70.8281 90.005 70.8281 87.9878C70.8281 85.9669 69.1949 84.3365 67.1765 84.3365H57.3455L56.2866 80.0546H78.2099V5.60153H78.2108ZM73.3425 75.185H55.0833H51.3225H47.5601H42.7603H35.4545H31.1472H27.3858H23.625H4.87176V10.4711H35.4545H42.7603H73.3425V75.185ZM28.8866 84.3365L29.9445 80.0546H35.4548V84.3365H28.8866ZM42.7603 84.3365V80.0546H48.7659L49.8248 84.3365H42.7603Z" fill="#D8FDF6"/>
</svg>
