<svg width="92" height="92" viewBox="0 0 92 92" fill="none" xmlns="http://www.w3.org/2000/svg">
<g clip-path="url(#clip0_310_20367)">
<path d="M46.0215 1.69971e-06C71.4253 0.00683068 92.0098 20.6206 92 46.0439C91.9912 71.434 71.3521 92.0224 45.9317 92C20.5231 91.9776 -0.0233936 71.3375 1.99908e-05 45.8566C0.0224581 20.565 20.6684 -0.00682728 46.0215 1.69971e-06ZM75.7149 74.3959C90.6869 58.7341 91.1815 32.8171 74.1539 16.6627C56.8025 0.20292 29.6056 1.89065 14.3936 20.3777C-0.17851 38.0872 3.47109 62.2364 17.1154 75.2095C18.7826 74.3217 20.3894 73.4096 22.0449 72.5969C24.7356 71.276 27.474 70.0517 30.1617 68.7249C31.6621 67.9844 33.0718 67.0762 34.2278 65.8333C34.941 65.0675 35.3546 64.1982 35.3068 63.1124C35.259 62.0422 35.2795 60.9681 35.3049 59.897C35.3146 59.4902 35.1917 59.2229 34.8824 58.9419C32.4835 56.7683 30.9041 54.1401 30.4817 50.8798C30.4553 50.6739 30.3246 50.4593 30.188 50.2935C29.7949 49.8184 29.3441 49.3901 28.9685 48.9023C26.635 45.8712 26.1033 42.6889 28.19 39.292C28.2857 39.1359 28.2837 38.8871 28.2544 38.693C28.0232 37.2043 27.7442 35.7214 27.5384 34.2298C27.1579 31.4718 26.9716 28.71 27.4759 25.9404C28.3774 20.9942 30.8885 17.1339 35.301 14.6657C39.7457 12.18 44.5494 11.579 49.5316 12.4297C51.7188 12.8034 53.7402 13.6219 55.3606 15.2306C55.4542 15.3242 55.6133 15.3711 55.7499 15.4003C57.0903 15.692 58.3029 16.2637 59.3585 17.1281C62.9456 20.0674 64.5114 24.0126 64.7826 28.5081C65.0051 32.1899 64.5036 35.8248 63.6568 39.413C63.6032 39.6383 63.6227 39.9398 63.7329 40.1359C65.6802 43.6079 64.4675 48.2145 61.5359 50.5666C61.3594 50.7081 61.2101 50.9656 61.1769 51.189C60.6999 54.3431 59.2629 56.9781 56.9478 59.1565C56.8074 59.2892 56.7166 59.5428 56.7127 59.7419C56.6913 60.9438 56.7225 62.1466 56.6952 63.3476C56.6776 64.1124 56.9381 64.7543 57.4532 65.285C57.8015 65.644 58.1858 65.9787 58.5966 66.2626C60.374 67.4908 62.3876 68.2293 64.3817 69.0039C68.2849 70.5209 72.3482 71.6965 75.7158 74.3959H75.7149ZM21.1006 78.7284C36.8482 91.0274 58.8053 89.2791 71.9306 77.8669C71.2975 77.504 70.7082 77.0816 70.0566 76.8075C67.5952 75.7695 65.1202 74.7598 62.6364 73.7754C60.1165 72.7774 57.5966 71.7882 55.3821 70.1795C52.9051 68.3805 51.5364 66.0323 51.6603 62.889C51.7237 61.2833 51.7364 59.6697 51.6466 58.0668C51.593 57.1107 51.8046 56.4454 52.7295 56.0864C52.8758 56.0298 53.0007 55.9089 53.1246 55.8054C55.2982 53.988 56.3167 51.6603 56.2454 48.8311C56.2132 47.5424 56.2171 47.4634 57.4493 47.1024C59.256 46.5727 60.5272 43.6235 58.819 41.8597C58.6161 41.6499 58.4512 41.4031 58.2434 41.1992C58.0054 40.9651 57.98 40.7368 58.0844 40.4188C59.219 36.9545 59.7516 33.3927 59.7789 29.7509C59.7936 27.7218 59.3995 25.7823 58.4883 23.9687C57.3683 21.7415 55.8913 20.0148 53.0495 20.3074C52.8856 20.324 52.6183 20.1065 52.5266 19.9309C52.0524 19.0207 51.431 18.287 50.4281 17.9456C50.1218 17.8412 49.8203 17.7173 49.5062 17.6393C46.7005 16.9446 43.9055 17.1105 41.129 17.8012C38.895 18.3573 36.9116 19.3904 35.3293 21.0918C32.8952 23.7102 32.1674 26.9062 32.3089 30.3616C32.4357 33.4659 32.9801 36.5185 33.6513 39.5427C33.8357 40.3719 33.7362 40.887 33.0884 41.4578C31.8348 42.5621 31.704 43.8869 32.583 45.3015C33.2269 46.3375 34.0786 47.1804 35.0805 47.8653C35.3858 48.0741 35.4961 48.3023 35.4785 48.6672C35.418 49.9286 35.5663 51.1627 36.097 52.3266C36.8453 53.9665 37.9721 55.2991 39.5174 56.2142C40.2071 56.623 40.4471 57.0717 40.4188 57.8658C40.3534 59.6989 40.3856 61.5359 40.4012 63.3719C40.4198 65.6421 39.6198 67.5835 38.1087 69.2536C36.8638 70.6292 35.4171 71.7716 33.7791 72.6086C30.9958 74.03 28.1569 75.3412 25.3404 76.6972C23.9424 77.3704 22.5425 78.0386 21.0986 78.7303L21.1006 78.7284Z" fill="#010E0D"/>
</g>
<defs>
<clipPath id="clip0_310_20367">
<rect width="92" height="92" fill="white"/>
</clipPath>
</defs>
</svg>
