<svg width="84" height="92" viewBox="0 0 84 92" fill="none" xmlns="http://www.w3.org/2000/svg">
<path d="M78.9727 0.20076C79.8357 0.477081 80.5347 1.09016 80.8971 1.88457C81.5184 3.2748 81.1733 5.34719 80.0514 6.98783C79.8098 7.35049 78.6275 8.76662 77.4453 10.1309C68.3756 20.5706 57.278 33.3417 54.3267 36.7266C52.3765 38.963 50.1759 41.4844 49.4424 42.3393C47.2074 44.9211 22.7426 73.0624 21.4654 74.5131C20.8182 75.2557 20.171 75.9378 20.0416 76.0328C19.5842 76.3523 19.0492 76.5768 18.6263 76.6286C18.2207 76.6804 18.1862 76.7063 17.7979 77.2503C16.7451 78.7356 15.4506 80.074 13.9318 81.2397C13.4572 81.6024 11.9384 82.6472 10.5663 83.5711C7.78761 85.419 6.2084 86.5847 4.78452 87.8195C3.66268 88.7866 3.13628 89.322 3.21394 89.3997C3.24846 89.4343 4.40482 89.3911 5.79417 89.3134C9.38407 89.1148 11.3257 89.0284 16.5638 88.8298C28.0411 88.3981 31.3894 88.234 37.0159 87.7936C48.3723 86.9042 54.7151 85.7558 55.0171 84.5555C55.1465 84.0374 54.7323 83.7697 52.3765 82.8199C50.6506 82.1291 48.7348 81.2052 47.9926 80.7043C45.9388 79.3486 45.4728 78.0016 46.5688 76.6373C48.8383 73.8223 55.9318 72.2853 69.9807 71.5599C73.7777 71.37 76.7894 71.2059 79.6458 71.0418C81.2854 70.9468 82.856 70.8778 83.1408 70.8778C83.6586 70.895 82.4591 70.99 78.6966 71.2577C77.5834 71.3354 75.9092 71.4477 74.9859 71.5167C74.0625 71.5858 72.6041 71.6808 71.7498 71.7326C60.842 72.3975 55.3882 73.1315 51.2805 74.4872C47.5612 75.7047 45.8525 77.5267 46.9312 79.0982C47.4835 79.9013 48.5018 80.4712 51.7292 81.7578C54.4821 82.8544 55.3019 83.2948 55.6557 83.8561C56.2339 84.8059 55.4313 85.5572 52.9374 86.3688C48.0876 87.9663 38.759 89.0284 19.6705 90.1682C8.34852 90.8417 4.24086 91.2476 1.41037 91.9902C1.1256 92.0679 0.512894 91.6707 0.2799 91.2562C0.038269 90.8158 0.038269 90.7295 0.254005 90.2891C0.521523 89.771 0.814926 89.6415 1.81596 89.5638L2.67891 89.5033L3.07587 88.9766C4.46523 87.0769 5.33681 85.5658 7.30434 81.5765C8.27949 79.6077 9.26325 77.6735 9.50488 77.2763C10.5749 75.4975 11.9643 73.9518 13.5435 72.7861C13.5694 72.7688 13.6039 72.458 13.6384 72.0867C13.6988 71.1541 13.9491 70.7051 15.1141 69.358C15.6491 68.7363 22.0436 61.3793 29.3356 53.0034C36.6189 44.6189 43.9195 36.2257 45.5505 34.352C71.1544 4.86363 73.7518 1.90185 74.4336 1.39239C75.2102 0.805206 75.9092 0.468445 76.8671 0.20076C77.8164 -0.0669174 78.1184 -0.0669174 78.9727 0.20076Z" fill="#010E0D"/>
</svg>
